<svg width="45" height="47" viewBox="0 0 45 47" fill="none" xmlns="http://www.w3.org/2000/svg">
<path d="M28.5508 43.9676C25.3562 47.4841 19.7349 47.5177 16.4979 44.0398C15.0521 42.4864 16.1751 39.998 18.3277 39.9851L26.672 39.9351C28.8247 39.9222 29.9777 42.397 28.5508 43.9676Z" fill="white"/>
<path fill-rule="evenodd" clip-rule="evenodd" d="M36.4097 39.6484C34.725 40.9573 32.3457 40.5249 30.9195 38.945L26.3882 33.9254C24.562 31.9023 21.3564 31.9023 19.5302 33.9254L14.626 39.358C13.2357 40.8982 10.934 41.355 9.24573 40.1388C3.64119 36.1014 0 29.5696 0 22.1987C0 9.93869 10.0736 0 22.5 0C34.9264 0 45 9.93869 45 22.1987C45 29.2782 41.641 35.5836 36.4097 39.6484ZM15.7073 24.6854L19.96 29.6505C21.3107 31.2275 23.6893 31.2275 25.04 29.6505L29.2927 24.6854C30.6579 23.0915 29.9539 20.569 27.9781 19.9743C24.4001 18.8973 20.5999 18.8973 17.0219 19.9743C15.0461 20.569 14.3421 23.0915 15.7073 24.6854ZM15.8333 14.1666C15.8333 16.0075 14.341 17.4999 12.5 17.4999C10.6591 17.4999 9.16667 16.0075 9.16667 14.1666C9.16667 12.3256 10.6591 10.8332 12.5 10.8332C14.341 10.8332 15.8333 12.3256 15.8333 14.1666ZM32.5 17.4999C34.341 17.4999 35.8333 16.0075 35.8333 14.1666C35.8333 12.3256 34.341 10.8332 32.5 10.8332C30.6591 10.8332 29.1667 12.3256 29.1667 14.1666C29.1667 16.0075 30.6591 17.4999 32.5 17.4999Z" fill="white"/>
</svg>
